# AST/ASF file generated using VICON BodyLanguage
# -----------------------------------------------
:version 1.10
:name VICON
:units
  mass 1.0
  length 0.45
  angle deg
:documentation
   .ast/.asf automatically generated from VICON data using
   VICON BodyBuilder and BodyLanguage model FoxedUp or BRILLIANT.MOD
:root
   order TX TY TZ RX RY RZ
   axis XYZ
   position 0 0 0  
   orientation 0 0 0 
:bonedata
  begin
     id 1 
     name lhipjoint
     direction 0.521689 -0.742065 0.420928 
     length 2.47002 
     axis 0 0 0  XYZ
  end
  begin
     id 2 
     name lfemur
     direction 0.34202 -0.939693 0  
     length 7.24654  
     axis 0 0 20  XYZ
    dof rx ry rz
    limits (-160.0 20.0)
           (-70.0 70.0)
           (-60.0 70.0)
  end
  begin
     id 3 
     name ltibia
     direction 0.34202 -0.939693 0   
     length 8.04849   
     axis 0 0 20   XYZ
    dof rx
    limits (-10.0 170.0)
  end
  begin
     id 4 
     name lfoot
     direction 0.0745411 -0.2048 0.975961   
     length 1.72367   
     axis -90 7.62852e-016 20   XYZ
    dof rx rz
    limits (-45.0 90.0)
           (-70.0 20.0)
  end
  begin
     id 5 
     name ltoes
     direction 1.53556e-011 -4.21901e-011 1   
     length 0.87311   
     axis -90 7.62852e-016 20   XYZ
    dof rx
    limits (-90.0 20.0)
  end
  begin
     id 6 
     name rhipjoint
     direction -0.52849 -0.738415 0.418857   
     length 2.48223  
     axis 0 0 0  XYZ 
  end
  begin
     id 7 
     name rfemur
     direction -0.34202 -0.939693 0   
     length 7.15571   
     axis 0 0 -20   XYZ
    dof rx ry rz
    limits (-160.0 20.0)
           (-70.0 70.0)
           (-70.0 60.0)
  end
  begin
     id 8 
     name rtibia
     direction -0.34202 -0.939693 0   
     length 7.81659   
     axis 0 0 -20   XYZ
    dof rx
    limits (-10.0 170.0)
 end
 begin
     id 9 
     name rfoot
     direction -0.0917348 -0.252039 0.963359   
     length 1.84382  
     axis -90 -7.62852e-016 -20   XYZ
    dof rx rz
    limits (-45.0 90.0)
           (-20.0 70.0)
  end
  begin
     id 10 
     name rtoes
     direction -1.53551e-011 -4.21879e-011 1   
     length 0.927771   
     axis -90 -7.62852e-016 -20   XYZ
    dof rx
    limits (-90.0 20.0)
  end
  begin
     id 11 
     name lowerback
     direction 0.00583058 0.999822 0.0179296   
     length 2.1429   
     axis 0 0 0   XYZ
    dof rx ry rz
    limits (-20.0 45.0)
           (-30.0 30.0)
           (-30.0 30.0)
  end
  begin
     id 12 
     name upperback
     direction -0.0137999 0.999752 -0.0175071   
     length 2.14252   
     axis 0 0 0   XYZ
    dof rx ry rz
    limits (-20.0 45.0)
           (-30.0 30.0)
           (-30.0 30.0)
  end
  begin
     id 13 
     name thorax
     direction -0.0158036 0.99955 -0.0254909   
     length 2.1383   
     axis 0 0 0   XYZ
    dof rx ry rz
    limits (-20.0 45.0)
           (-30.0 30.0)
           (-30.0 30.0)
  end
  begin
     id 14 
     name lowerneck
     direction -0.0101179 0.999403 -0.0330262   
     length 1.65808   
     axis 0 0 0   XYZ
    dof rx ry rz
    limits (-20.0 45.0)
           (-30.0 30.0)
           (-30.0 30.0)
  end
  begin
     id 15 
     name upperneck
     direction 0.0497734 0.995978 -0.074501   
     length 1.5897   
     axis 0 0 0   XYZ
    dof rx ry rz
    limits (-20.0 45.0)
           (-30.0 30.0)
           (-30.0 30.0)
  end
  begin
     id 16
     name head
     direction 0.0189524 0.999519 -0.0245438  
     length 1.74024  
     axis 0 0 0   XYZ
    dof rx ry rz
    limits (-20.0 45.0)
           (-30.0 30.0)
           (-30.0 30.0)
  end
  begin
     id 17 
     name lclavicle
     direction 0.945604 0.324422 0.0241537  
     length 3.59089  
     axis 0 0 0   XYZ
    dof ry rz
    limits (-20.0 10.0)
           (0.0 20.0)
  end
  begin
     id 18 
     name lhumerus
     direction 1 -4.48964e-011 -2.63524e-027   
     length 5.2391   
     axis 180 -30 -90   XYZ
    dof rx ry rz
    limits (-60.0 90.0)
           (-90.0 90.0)
           (-90.0 90.0)
  end
  begin
     id 19
     name lradius
     direction 1 -4.48969e-011 3.86978e-028   
     length 3.31467   
     axis 180 -30 -90   XYZ
    dof rx
    limits (-10.0 170.0)
  end
  begin
     id 20
     name lwrist
     direction 1 -4.48963e-011 7.20928e-028   
     length 1.65734   
     axis -5.52449e-016 90 90   XYZ
    dof ry
    limits (-180.0 0.0)
 end
  begin
     id 21 
     name lhand
     direction 1 -4.48964e-011 1.44186e-027   
     length 0.9659   
     axis -9.20027e-016 90 90   XYZ
    dof rx rz
    limits (-90.0 90.0)
           (-45.0 45.0)
  end
  begin
     id 22 
     name lfingers
     direction 1 -4.48965e-011 2.88371e-027   
     length 0.778733   
     axis -1.84005e-015 90 90   XYZ
    dof rx
    limits (0.0 90.0)
  end
  begin
     id 23
     name lthumb
     direction 0.707107 -6.34931e-011 0.707107   
     length 1.11811   
     axis -90 45 2.85299e-015   XYZ
    dof rx rz
    limits (-45.0 45.0)
           (-45.0 45.0)
  end
  begin
     id 24 
     name rclavicle
     direction -0.923762 0.370785 0.0958234   
     length 3.54196  
     axis 0 0 0   XYZ 
    dof ry rz
    limits (-10.0 20.0)
           (-20.0 0.0)
  end
  begin
     id 25 
     name rhumerus
     direction -1 -4.48966e-011 1.18702e-017  
     length 5.30252   
     axis 180 30 90   XYZ
    dof rx ry rz
    limits (-90.0 60.0)
           (-90.0 90.0)
           (-90.0 90.0)
  end
  begin
     id 26 
     name rradius
     direction -1 -4.48966e-011 4.46736e-027   
     length 3.67875   
     axis 180 30 90   XYZ
    dof rx
    limits (-10.0 170.0)
  end
  begin
     id 27 
     name rwrist
     direction -1 -4.48966e-011 7.20928e-028   
     length 1.83937   
     axis -5.52449e-016 -90 -90   XYZ
    dof ry
    limits (-180.0 0.0)
  end
  begin
     id 28
     name rhand
     direction -1 -4.48973e-011 1.44186e-027   
     length 0.594811   
     axis -9.20027e-016 -90 -90   XYZ
    dof rx rz
    limits (-90.0 90.0)
           (-45.0 45.0)
  end
  begin
     id 29
     name rfingers
     direction -1 -4.48963e-011 2.88371e-027   
     length 0.479552   
     axis -1.84005e-015 -90 -90   XYZ
    dof rx
    limits (0.0 90.0)
  end
  begin
     id 30
     name rthumb
     direction -0.707107 -6.34932e-011 0.707107   
     length 0.688544   
     axis -90 -45 -2.85299e-015   XYZ
    dof rx rz
    limits (-45.0 45.0)
           (-45.0 45.0)
  end
:hierarchy
  begin
    root lhipjoint rhipjoint lowerback
    lhipjoint lfemur
    lfemur ltibia
    ltibia lfoot
    lfoot ltoes
    rhipjoint rfemur
    rfemur rtibia
    rtibia rfoot
    rfoot rtoes
    lowerback upperback
    upperback thorax
    thorax lowerneck lclavicle rclavicle
    lowerneck upperneck
    upperneck head
    lclavicle lhumerus
    lhumerus lradius
    lradius lwrist
    lwrist lhand lthumb
    lhand lfingers
    rclavicle rhumerus
    rhumerus rradius
    rradius rwrist
    rwrist rhand rthumb
    rhand rfingers
  end

#!OML:ASF E:\acrobat2\Project_11_07_03\Capture day 1\Session 1\Acrobat.ASF
:FULLY-SPECIFIED
:DEGREES
802
root 10.4904 17.8578 24.1171 375.222 -83.8624 -11.5789
lowerback -8.77508 0.0683813 -1.16742
upperback -3.03202 0.135955 -1.5192
thorax 1.77974 0.0273205 -0.898542
lowerneck 2.57891 -2.25816 -0.599206
upperneck -1.01112 -2.98782 4.50173
head -0.663469 -1.54857 1.5326
rclavicle 4.87022e-015 1.74931e-014
rhumerus -13.5466 -38.4203 -3.33767
rradius 20.8181
rwrist 9.89731
rhand -15.3251 -51.7122
rfingers 7.12502
rthumb 10.8512 278.588
lclavicle 4.87022e-015 1.74931e-014
lhumerus 4.30459 14.9629 5.04332
lradius 21.6942
lwrist 8.47347
lhand -14.7434 -4.63486
lfingers 7.12502
lthumb 11.4122 25.0346
rfemur 18.2536 17.8745 16.4004
rtibia -4.32325
rfoot -36.9343 -32.9458
rtoes 7.88738
lfemur 13.3632 -13.0065 -3.63034
ltibia -3.53405
lfoot -202.824 178.399
ltoes 45.8549
803
root 10.4917 17.8555 24.1137 375.62 -83.8734 -11.9894
lowerback -8.74573 0.0827499 -1.14297
upperback -3.02293 0.152885 -1.50311
thorax 1.77313 0.0360851 -0.893907
lowerneck 1.48014 -1.93345 -1.40533
upperneck 0.472847 -2.64251 5.63354
head -0.00400882 -1.35116 2.00297
rclavicle -8.94531e-015 -5.56597e-015
rhumerus -13.5579 -38.3099 -3.3527
rradius 20.8448
rwrist 9.82041
rhand -15.4137 -51.7585
rfingers 7.12502
rthumb 10.7657 278.537
lclavicle -8.94531e-015 -5.56597e-015
lhumerus 4.38364 15.1001 5.1012
lradius 21.6918
lwrist 8.4418
lhand -14.8824 -4.46605
lfingers 7.12502
lthumb 11.2781 25.2107
rfemur 18.3217 18.1664 16.5851
rtibia -4.42908
rfoot -37.032 -33.3638
rtoes 7.34197
lfemur 13.3752 -12.9872 -3.55775
ltibia -3.5646
lfoot -202.826 178.355
ltoes 46.0295
804
root 10.4933 17.853 24.1105 375.995 -83.8805 -12.3586
lowerback -8.73122 0.0921359 -1.11004
upperback -3.0084 0.163145 -1.49833
thorax 1.78034 0.0414123 -0.906443
lowerneck 0.969923 -1.85594 -1.6167
upperneck 1.09426 -2.57734 6.00045
head 0.281336 -1.30423 2.15052
rclavicle -2.55438e-014 3.65764e-014
rhumerus -13.5454 -38.5726 -3.36902
rradius 20.8078
rwrist 10.0636
rhand -15.5849 -51.7895
rfingers 7.12502
rthumb 10.6006 278.498
lclavicle -2.55438e-014 3.65764e-014
lhumerus 4.49621 15.4224 5.15105
lradius 21.6438
lwrist 8.16656
lhand -14.9135 -4.49729
lfingers 7.12502
lthumb 11.2481 25.1811
rfemur 18.3281 18.2763 16.6935
rtibia -4.42635
rfoot -37.2108 -33.3963
rtoes 7.82218
lfemur 13.3616 -12.9731 -3.49334
ltibia -3.5755
lfoot -202.757 178.304
ltoes 46.076
805
root 10.4944 17.851 24.1075 376.608 -83.8878 -12.985
lowerback -8.70659 0.119785 -1.02235
upperback -2.98481 0.193899 -1.52077
thorax 1.79181 0.0568277 -0.975792
lowerneck 0.782146 -1.9218 -1.48213
upperneck 1.29242 -2.67657 6.02105
head 0.37746 -1.34804 2.12982
rclavicle 4.57205e-015 -1.11319e-014
rhumerus -13.5789 -39.6691 -3.31462
rradius 20.6764
rwrist 11.0921
rhand -15.6436 -51.7063
rfingers 7.12502
rthumb 10.544 278.578
lclavicle 4.57205e-015 -1.11319e-014
lhumerus 4.67071 15.6666 5.15923
lradius 21.607
lwrist 7.93842
lhand -14.6704 -4.56791
lfingers 7.12502
lthumb 11.4826 25.0976
rfemur 18.2978 18.1478 16.7357
rtibia -4.3436
rfoot -37.2074 -33.2249
rtoes 8.36145
lfemur 13.4065 -13.102 -3.44287
ltibia -3.60431
lfoot -202.784 178.602
ltoes 45.1145
806
root 10.4955 17.8491 24.1064 376.366 -83.9288 -12.7262
lowerback -8.70686 0.129882 -1.03263
upperback -2.98764 0.208374 -1.55151
thorax 1.78923 0.063766 -1.0003
lowerneck 0.759007 -1.96464 -1.39698
upperneck 1.36724 -2.73821 6.0144
head 0.4058 -1.37736 2.11156
rclavicle 7.95139e-016 -5.56597e-015
rhumerus -13.614 -39.0918 -3.37698
rradius 20.6812
rwrist 10.4914
rhand -15.6721 -51.6582
rfingers 7.12502
rthumb 10.5164 278.625
lclavicle 7.95139e-016 -5.56597e-015
lhumerus 4.81963 16.1645 5.26093
lradius 21.5122
lwrist 7.4809
lhand -14.4545 -4.71797
lfingers 7.12502
lthumb 11.6909 24.9358
rfemur 18.2809 18.1618 16.6946
rtibia -4.36705
rfoot -36.9539 -33.6117
rtoes 6.61626
lfemur 13.4359 -13.2826 -3.52783
ltibia -3.64395
lfoot -202.969 178.794
ltoes 44.6463
807
root 10.4974 17.8483 24.1088 375.269 -83.9799 -11.5803
lowerback -8.7311 0.109082 -1.13481
upperback -2.99839 0.189117 -1.57807
thorax 1.79094 0.0538244 -0.972257
lowerneck 0.827098 -1.98452 -1.53158
upperneck 1.30773 -2.76545 6.1693
head 0.381469 -1.3937 2.18737
rclavicle 2.08724e-015 2.78299e-014
rhumerus -13.4165 -40.453 -3.38879
rradius 20.4355
rwrist 11.8418
rhand -15.507 -51.4163
rfingers 7.12502
rthumb 10.6758 278.875
lclavicle 2.08724e-015 2.78299e-014
lhumerus 4.80639 16.302 5.24714
lradius 21.5008
lwrist 7.42612
lhand -14.4537 -4.76049
lfingers 7.12502
lthumb 11.6916 24.8933
rfemur 18.2331 18.1461 16.5138
rtibia -4.40859
rfoot -36.6211 -33.906
rtoes 5.04846
lfemur 13.4264 -13.4834 -3.74344
ltibia -3.67065
lfoot -203.169 178.957
ltoes 44.4329
808
root 10.4993 17.8493 24.1116 374.293 -84.0194 -10.5681
lowerback -8.72238 0.0873228 -1.24068
upperback -3.02 0.167645 -1.59094
thorax 1.76321 0.0429319 -0.928196
lowerneck 0.935976 -2.02425 -1.81203
upperneck 1.19547 -2.82078 6.49604
head 0.340137 -1.42646 2.3472
rclavicle -1.0635e-014 -7.15625e-015
rhumerus -13.4217 -39.3053 -3.52772
rradius 20.6512
rwrist 10.7247
rhand -15.3844 -51.6923
rfingers 7.12502
rthumb 10.794 278.605
lclavicle -1.0635e-014 -7.15625e-015
lhumerus 4.68825 15.8302 5.083
lradius 21.6622
lwrist 7.92931
lhand -14.3867 -4.55648
lfingers 7.12502
lthumb 11.7562 25.0936
rfemur 18.1118 17.7856 16.2002
rtibia -4.36905
rfoot -36.0924 -33.7512
rtoes 4.35721
lfemur 13.4057 -13.4891 -3.89076
ltibia -3.66885
lfoot -203.139 179.17
ltoes 43.8639
809
root 10.5006 17.8501 24.1127 373.946 -84.0561 -10.2168
lowerback -8.68674 0.0618242 -1.29048
upperback -3.04277 0.13565 -1.56775
thorax 1.71955 0.0271488 -0.879397
lowerneck 0.995257 -2.007 -1.85705
upperneck 1.16484 -2.79669 6.51718
head 0.320379 -1.41606 2.36331
rclavicle -9.14409e-015 8.74653e-015
rhumerus -13.183 -40.8125 -3.5545
rradius 20.4822
rwrist 12.2855
rhand -14.9591 -51.5641
rfingers 7.12502
rthumb 11.2042 278.755
lclavicle -9.14409e-015 8.74653e-015
lhumerus 4.6444 15.9971 5.11873
lradius 21.6852
lwrist 7.62735
lhand -14.3689 -4.54699
lfingers 7.12502
lthumb 11.7734 25.1021
rfemur 18.0443 17.5731 16.0373
rtibia -4.3632
rfoot -35.7031 -33.7218
rtoes 3.92659
lfemur 13.3929 -13.2926 -3.8845
ltibia -3.65209
lfoot -202.964 179.162
ltoes 43.6381
810
root 10.5015 17.8496 24.1126 374.674 -84.079 -10.9532
lowerback -8.67029 0.0638646 -1.20784
upperback -3.04404 0.130884 -1.53043
thorax 1.70936 0.024982 -0.887753
lowerneck 1.03719 -1.97317 -1.67926
upperneck 1.14917 -2.74496 6.2907
head 0.299571 -1.39001 2.25714
rclavicle 4.57205e-015 -3.4191e-014
rhumerus -13.1765 -39.9253 -3.65441
rradius 20.6249
rwrist 11.4241
rhand -15.037 -51.83
rfingers 7.12502
rthumb 11.129 278.485
lclavicle 4.57205e-015 -3.4191e-014
lhumerus 4.67031 16.2075 5.1926
lradius 21.6155
lwrist 7.28859
lhand -14.5667 -4.68364
lfingers 7.12502
lthumb 11.5826 24.9763
rfemur 18.0691 17.7587 16.1898
rtibia -4.40362
rfoot -35.8498 -33.877
rtoes 4.27716
lfemur 13.401 -13.188 -3.74949
ltibia -3.66183
lfoot -202.925 179.037
ltoes 43.8143
